<?xml version="1.0" standalone="no"?>
<!DOCTYPE svg PUBLIC "-//W3C//DTD SVG 1.1//EN" "http://www.w3.org/Graphics/SVG/1.1/DTD/svg11.dtd" >
<svg xmlns="http://www.w3.org/2000/svg">
<metadata>Generated by IcoMoon</metadata>
<defs>
<font id="icomoon" horiz-adv-x="1024">
<font-face units-per-em="1024" ascent="960" descent="-64" />
<missing-glyph horiz-adv-x="1024" />
<glyph unicode="&#x20;" horiz-adv-x="512" d="" />
<glyph unicode="&#xe900;" glyph-name="view-finder" horiz-adv-x="1022" d="M996.352 596.48c-58.157 189.801-184.169 306.116-377.736 349.455-13.071 2.861-25.751 7.138-38.671 10.782h-142.487c-17.288-5.060-34.696-10.481-52.073-15.36-203.836-56.591-330.059-186.82-375.416-394.21-2.048-9.577-6.596-18.613-9.969-27.859v-142.456c5.060-17.528 10.18-34.936 15.059-52.405 56.862-203.746 187.723-329.427 394.812-374.995 9.457-2.108 18.402-6.746 27.558-10.18h142.487c19.366 5.301 38.671 10.511 58.007 15.691 199.861 53.82 322.259 181.941 368.58 383.337 3.042 13.041 7.319 25.72 10.963 38.581v142.456c-6.987 25.72-13.282 51.652-21.112 77.161zM513.265 170.104c-161.19-0.904-281.69 115.923-284.040 275.456-2.229 157.726 123.241 285.033 281.901 286.057 155.256 1.024 278.197-122.519 280.335-281.751 2.259-160.256-115.592-278.739-278.197-279.763zM508.416 692.254c-139.445-0.693-243.411-106.315-242.206-246.121 1.144-138.903 107.159-244.525 245.248-244.525 135.77 0.090 250.428 115.29 248.591 249.916-1.747 132.488-115.682 241.453-251.633 240.73zM510.313 244.495c-109.598-0.181-199.951 93.816-198.716 206.999 1.114 112.158 89.66 199.349 200.855 197.903 111.435-1.385 200.584-89.931 200.794-199.529 0.181-108.875-94.961-205.252-202.933-205.372z" />
<glyph unicode="&#xe901;" glyph-name="controls" horiz-adv-x="952" d="M951.989 330.391v-47.767c-12.981-50.387-20.841-102.761-40.207-150.498-21.173-52.043-50.447-99.96-42.135-159.925 1.747-12.408-8.433-26.504-13.161-39.755h-390.024c-6.204 20.691-18.161 41.532-17.438 61.922 1.385 41.623-11.927 75.776-30.69 112.068-27.166 52.375-50.477 107.61-67.373 164.051-17.257 57.585-0.361 85.203 50.176 118.965 9.186 6.054 15.119 23.16 15.36 35.358 1.325 87.281-0.331 174.773 1.325 262.084 1.024 53.489 45.628 83.095 92.431 64.211 30.118-12.168 39.093-37.948 40.117-67.132 1.114-34.153 0.241-68.397 0.241-102.28 30.63-1.897 63.91 5.873 82.914-7.138 39.243-26.835 82.733-29.786 123.272-43.851 51.17-17.83 105.984-45.779 150.197-81.498 20.6-16.655 26.112-52.646 36.924-80.384 4.728-12.077 5.512-25.6 8.072-38.43zM123.452 832.211c-28.582-22.769-69.813-18.854-92.341 9.547-7.228 9.065-12.228 19.908-18.281 29.847v79.601h87.552c11.294-8.915 24.335-16.324 33.491-27.136 23.642-28.040 18.221-69.030-10.421-91.859zM327.288 837c-25.088-25.389-67.403-25.871-93.124-0.964-28.009 27.226-26.473 71.62 3.674 98.515 6.837 6.054 14.487 11.053 21.745 16.625h39.785c7.499-5.331 15.45-10.029 22.438-15.992 31.172-26.564 33.491-69.873 5.481-98.184zM514.711 825.736c-28.973-15.992-65.114-8.252-84.932 18.161-19.336 25.811-16.956 63.518 5.813 86.859 7.078 7.319 15.27 13.673 22.92 20.45h47.767c12.8-14.396 29.395-26.985 37.496-43.61 14.246-29.304-1.024-66.409-29.064-81.86zM148.209 497.212c0.632-31.443-15.119-53.399-44.333-63.518-31.051-10.692-57.133-1.626-76.499 25.239-5.24 7.349-9.698 15.119-14.547 22.679v23.883c4.216 8.041 7.861 16.384 12.74 24.034 17.83 28.1 44.183 38.46 75.354 29.395 29.304-8.644 46.562-30.118 47.285-61.711zM124.326 638.735c-28.823-23.703-72.523-18.944-94.72 11.144-6.867 9.306-11.234 20.45-16.806 30.72v15.902c7.68 13.523 13.161 29.124 23.432 40.177 25.299 27.166 70.114 24.847 95.112-2.831 25.389-28.1 22.197-71.168-7.017-95.112zM346.805 689.092c-0.392-36.051-29.696-65.024-66.048-65.205-37.647-0.241-68.939 31.593-67.253 68.397 1.566 35.177 33.25 64.632 68.397 63.759 35.75-0.964 65.205-31.352 64.904-66.952zM346.805 495.767c0.151-35.177-30.148-66.229-65.355-66.952-34.394-0.753-66.68 29.937-67.976 64.632-1.416 36.713 30.328 68.608 67.644 68.216 35.991-0.482 65.596-30.178 65.687-65.897z" />
<glyph unicode="&#xe902;" glyph-name="auto-mode" horiz-adv-x="915" d="M780.619 832.904h-118.242c-1.536 9.065-2.319 17.468-4.457 25.51-11.896 45.387-39.846 76.649-83.366 94.148-5.993 2.379-11.957 4.969-17.92 7.439h-198.536c-20.028-10.993-41.894-19.576-59.603-33.521-28.792-22.588-42.767-54.633-45.207-93.576h-115.2c-86.739 0-138.029-51.26-138.089-137.999 0-112.52-0.030-225.039 0.030-337.498 0.030-82.010 53.158-134.837 135.68-134.837 214.408-0.060 428.785-0.060 643.192 0 82.583 0 135.71 52.826 135.74 134.837 0.090 113.784 0.090 227.599 0 341.414 0 81.257-52.917 134.054-134.024 134.084zM139.174 655.179c-20.149 0.392-37.195 23.672-37.195 50.718 0 27.016 17.137 50.266 37.225 50.628 20.088 0.392 37.707-22.588 38.159-49.694 0.452-27.799-17.528-52.104-38.189-51.652zM457.848 350.419c-97.882-0.361-178.598 79.992-178.477 177.574 0.12 97.822 80.444 177.694 178.537 177.604 97.672-0.151 178.116-81.047 177.513-178.598-0.632-97.009-80.294-176.279-177.574-176.58zM162.515 128.422c-15.782 45.116-15.902 45.056-63.849 44.122-1.295-0.060-2.982 0.542-3.885-0.12-5.361-3.524-13.493-6.174-15.36-11.174-26.714-72.403-52.676-145.167-78.758-217.811h55.627c16.625 46.411 16.625 46.773 67.343 46.291 38.49-0.301 29.425 6.174 41.713-29.576 1.958-5.662 4.066-11.113 6.084-16.715h55.597c-21.474 61.681-42.857 123.392-64.512 184.983zM85.203 37.015c9.487 30.72 18.552 59.934 28.16 90.985 9.487-31.051 18.372-60.115 27.799-90.985h-55.959zM650.782 131.765h-64.392c0-26.835 0.181-51.17-0.090-75.535-0.452-37.647-1.235-75.234-1.897-112.821h-51.622v187.181h-64.060v40.659h182.031v-39.484zM777.397 171.701c-75.957 0.060-117.218-40.538-117.218-115.411 0.030-70.776 40.087-109.598 113.212-109.658 75.475 0 115.622 39.575 115.652 114.056 0 72.192-38.852 110.893-111.646 111.014zM794.112-10.059c-31.563-11.354-62.404 5.12-72.885 38.822-11.264 36.232-0.723 77.222 24.064 93.816 27.106 18.071 64.060 9.005 77.463-20.751 6.084-13.463 7.77-28.943 11.475-43.46-2.47-36.201-15.39-59.543-40.117-68.427zM437.278 31.292c-1.506-53.7-31.081-82.342-84.661-84.42-7.951-0.361-15.872-0.361-23.793 0-52.134 1.897-80.776 29.576-82.101 81.83-1.205 46.833-0.241 93.696-0.241 142.185h52.314c0-34.575-0.271-69.361 0.151-104.056 0.181-13.764 0.482-27.829 3.223-41.291 4.608-22.528 18.673-32.768 40.749-32.407 21.986 0.241 36.593 11.113 39.123 34.003 2.771 25.54 2.168 51.411 2.56 77.131 0.361 21.715 0.090 43.46 0.090 67.343h50.899c0.753-2.711 1.988-5.060 1.988-7.409 0.060-44.333 0.934-88.666-0.301-132.909zM572.235 526.938c-0.542-63.066-52.887-114.477-115.863-113.694-63.307 0.632-114.477 52.706-113.845 115.712 0.602 63.368 51.953 113.634 115.832 113.363 63.307-0.301 114.417-52.073 113.875-115.381z" />
<glyph unicode="&#xe903;" glyph-name="auto-flash" d="M43.886 960v-585.143h146.286v-438.857l341.333 585.143h-195.048l195.048 438.857h-487.619zM824.076 960h-97.524l-156.038-438.857h92.648l34.135 97.524h156.038l34.135-97.524h92.646l-156.040 438.857zM721.676 686.933l53.638 175.543 53.638-175.543h-107.276z" />
<glyph unicode="&#xe904;" glyph-name="autofocus" d="M836.266 857.6h85.334v-85.334c0-10.24 6.826-17.066 17.066-17.066s17.066 6.826 17.066 17.066v102.4c0 10.24-6.826 17.066-17.066 17.066h-102.4c-10.24 0-17.066-6.826-17.066-17.066s6.826-17.066 17.066-17.066zM187.734 38.4h-85.334v85.334c0 10.24-6.826 17.066-17.066 17.066s-17.066-6.826-17.066-17.066v-102.4c0-10.24 6.826-17.066 17.066-17.066h102.4c10.24 0 17.066 6.826 17.066 17.066s-6.826 17.066-17.066 17.066zM187.734 891.734h-102.4c-10.24 0-17.066-6.826-17.066-17.066v-102.4c0-10.24 6.826-17.066 17.066-17.066s17.066 6.826 17.066 17.066v85.332h85.334c10.24 0 17.066 6.826 17.066 17.066s-6.826 17.068-17.066 17.068zM938.666 140.8c-10.24 0-17.066-6.826-17.066-17.066v-85.334h-85.334c-10.24 0-17.066-6.826-17.066-17.066s6.826-17.066 17.066-17.066h102.4c10.24 0 17.066 6.826 17.066 17.066v102.4c0.002 10.24-6.826 17.066-17.066 17.066zM170.666 448c0 10.24-6.826 17.066-17.066 17.066h-136.534c-10.24 0-17.066-6.826-17.066-17.066s6.826-17.066 17.066-17.066h136.534c10.24 0 17.066 6.826 17.066 17.066zM1006.934 465.066h-136.534c-10.24 0-17.066-6.826-17.066-17.066s6.826-17.066 17.066-17.066h136.534c10.24 0 17.066 6.826 17.066 17.066s-6.826 17.066-17.066 17.066zM512 106.666c-10.24 0-17.066-6.826-17.066-17.066v-136.534c0-10.24 6.826-17.066 17.066-17.066s17.066 6.826 17.066 17.066v136.534c0 10.24-6.826 17.066-17.066 17.066zM512 789.334c10.24 0 17.066 6.826 17.066 17.066v136.534c0 10.24-6.826 17.066-17.066 17.066s-17.066-6.826-17.066-17.066v-136.534c0-10.24 6.826-17.066 17.066-17.066zM631.466 465.066h-102.4v102.4c0 10.24-6.826 17.066-17.066 17.066s-17.066-6.826-17.066-17.066v-102.4h-102.4c-10.24 0-17.066-6.826-17.066-17.066s6.826-17.066 17.066-17.066h102.4v-102.4c0-10.24 6.826-17.066 17.066-17.066s17.066 6.826 17.066 17.066v102.4h102.4c10.24 0 17.066 6.826 17.066 17.066s-6.826 17.066-17.066 17.066z" />
<glyph unicode="&#xe905;" glyph-name="burst-mode" d="M855.369 563.067c-97.619 0-160.99-76.484-181.812-101.618-0.151-0.185-0.306-0.369-0.46-0.554-0.134 0.165-0.269 0.326-0.4 0.487-20.755 25.15-83.904 101.685-182.316 101.685-64.76 0-114.698-32.634-148.537-97.025-28.833 51.767-71.381 77.999-126.583 77.999-46.204 0-70.888-12.275-84.72-23.015 2.76 17.213 7.091 43.693 12.956 78.099h187.496c4.637 0 8.393 3.757 8.393 8.393v76.098c0 4.637-3.757 8.393-8.393 8.393h-263.252c-4.079 0-7.568-2.931-8.269-6.95l-44.512-254.926c-0.426-2.441 0.248-4.949 1.843-6.846 1.598-1.897 3.948-2.995 6.426-2.995h85.207c3.079 0 5.909 1.685 7.376 4.391 0.171 0.316 17.653 31.546 63.844 31.546 49.038 0 74.695-38.311 74.695-76.159 0-40.342-31.945-85.459-74.695-85.459-42.075 0-67.913 35.988-67.913 61.786 0 4.637-3.757 8.393-8.393 8.393h-94.957c-4.637 0-8.393-3.757-8.393-8.393 0-16.512 6.456-53.302 30.649-86.469 21.944-30.085 65.607-65.946 149.004-65.946 96.014 0 145.603 55.031 163.179 88.729 18.922-32.959 67.242-88.729 147.547-88.729 98.18 0 157.055 69.353 179.224 95.46 1.246 1.471 2.562 3.018 3.747 4.385 1.595-1.652 3.445-3.623 5.184-5.473 24.24-25.812 88.628-94.373 176.833-94.373 105.556 0 168.631 91.68 168.631 180.315 0 44.27-14.571 87.97-39.976 119.899-30.643 38.512-75.131 58.868-128.651 58.868zM856.111 311.566c-46.815 0-98.885 53.829-114.443 71.173 15.558 17.344 67.628 71.173 114.443 71.173 61.363 0 63.142-70.444 63.142-71.186 0-0.712-1.776-71.16-63.142-71.16zM490.912 311.566c-61.366 0-63.146 70.444-63.146 71.17v0.017h0.003c0 0.712 1.763 71.156 63.142 71.156 46.614 0 98.804-53.812 114.426-71.173-15.608-17.344-67.806-71.17-114.426-71.17z" />
<glyph unicode="&#xe906;" glyph-name="camera_macro" d="M879.762 784.046v142.453c0 19.724-22.189 31.296-38.362 20.006l-205.003-143.105-125.745 148c-9.743 11.467-27.442 11.467-37.185 0l-125.744-148.002-205.004 143.108c-16.173 11.29-38.362-0.282-38.362-20.006v-139.916c0-214.623 175.604-391.599 390.222-390.233 13.884 0.088 27.592 0.925 41.092 2.435v-462.785c394.795 0 435.519 346.741 437.547 469.751 0.315 19.082-20.4 31.122-36.823 21.401l-317.729-188.042v178.381c151.952 52.477 261.096 196.766 261.096 366.553zM50.78 405.937c1.988-122.849 42.56-469.934 437.549-469.934v256.199l-400.807 235.184c-16.424 9.637-37.051-2.409-36.742-21.449z" />
<glyph unicode="&#xe907;" glyph-name="camera-autofocus-1" d="M297.020 960h-276.122c-11.542 0-20.898-9.356-20.898-20.898v-276.122c0-11.54 9.356-20.898 20.898-20.898s20.898 9.358 20.898 20.898v255.224h255.224c11.542 0 20.898 9.356 20.898 20.898s-9.356 20.898-20.898 20.898zM1003.102 253.918c-11.542 0-20.898-9.358-20.898-20.898v-255.224h-255.224c-11.542 0-20.898-9.358-20.898-20.898s9.356-20.898 20.898-20.898h276.122c11.542 0 20.898 9.358 20.898 20.898v276.122c0 11.54-9.356 20.898-20.898 20.898zM1003.102 960h-199.16c-11.542 0-20.898-9.356-20.898-20.898s9.356-20.898 20.898-20.898h178.262v-255.224c0-11.54 9.356-20.898 20.898-20.898s20.898 9.358 20.898 20.898v276.122c0 11.542-9.356 20.898-20.898 20.898zM736.336 960h-9.356c-11.542 0-20.898-9.356-20.898-20.898s9.356-20.898 20.898-20.898h9.356c11.542 0 20.898 9.356 20.898 20.898s-9.356 20.898-20.898 20.898zM220.058-22.204h-178.262v255.224c0 11.54-9.356 20.898-20.898 20.898s-20.898-9.358-20.898-20.898v-276.122c0-11.54 9.356-20.898 20.898-20.898h199.16c11.542 0 20.898 9.358 20.898 20.898s-9.356 20.898-20.898 20.898zM297.020-22.204h-9.356c-11.542 0-20.898-9.358-20.898-20.898s9.356-20.898 20.898-20.898h9.356c11.542 0 20.898 9.358 20.898 20.898s-9.356 20.898-20.898 20.898zM512 719.674c-149.8 0-271.674-121.87-271.674-271.674s121.874-271.674 271.674-271.674 271.674 121.872 271.674 271.674-121.874 271.674-271.674 271.674zM512 218.122c-126.754 0-229.878 103.124-229.878 229.878s103.124 229.878 229.878 229.878 229.878-103.124 229.878-229.878-103.124-229.878-229.878-229.878zM512 602.644c-85.272 0-154.644-69.372-154.644-154.644s69.372-154.644 154.644-154.644c85.272 0 154.644 69.372 154.644 154.644s-69.372 154.644-154.644 154.644zM512 335.152c-62.226 0-112.848 50.626-112.848 112.848s50.624 112.848 112.848 112.848c62.226 0 112.848-50.626 112.848-112.848s-50.622-112.848-112.848-112.848z" />
<glyph unicode="&#xe908;" glyph-name="camera-autofocus-2" d="M597.329 448.003c0-47.128-38.204-85.332-85.332-85.332s-85.332 38.204-85.332 85.332c0 47.128 38.204 85.332 85.332 85.332s85.332-38.204 85.332-85.332zM938.668 960h-127.998c-11.779 0-21.336-9.541-21.336-21.336 0-11.79 9.552-21.336 21.336-21.336h127.998c23.574 0 42.666-19.082 42.666-42.666v-127.998c0-11.79 9.552-21.336 21.336-21.336 11.779 0 21.336 9.541 21.336 21.336v128.003c-0.005 47.126-38.217 85.332-85.337 85.332zM213.335 960h-128.003c-47.126 0-85.332-38.206-85.332-85.332v-127.998c0-11.79 9.552-21.336 21.336-21.336 11.779 0 21.336 9.541 21.336 21.336v127.998c0 23.584 19.092 42.666 42.666 42.666h127.998c11.779 0 21.336 9.541 21.336 21.336-0.005 11.79-9.557 21.33-21.336 21.33zM213.335-21.334h-128.003c-23.574 0-42.666 19.082-42.666 42.666v127.998c0 11.79-9.552 21.336-21.336 21.336-11.779 0-21.336-9.541-21.336-21.336v-127.998c0-47.126 38.206-85.332 85.332-85.332h127.998c11.779 0 21.336 9.541 21.336 21.336 0.005 11.79-9.546 21.33-21.325 21.33zM1002.664 170.666c-11.779 0-21.336-9.541-21.336-21.336v-127.998c0-23.584-19.092-42.666-42.666-42.666h-127.998c-11.779 0-21.336-9.541-21.336-21.336 0-11.79 9.552-21.336 21.336-21.336h127.998c47.126 0 85.332 38.206 85.332 85.332v127.998c0.005 11.8-9.552 21.341-21.33 21.341zM511.997 661.333c-117.82 0-213.335-95.499-213.335-213.335 0-117.831 95.51-213.335 213.335-213.335 117.82 0 213.335 95.499 213.335 213.335s-95.51 213.335-213.335 213.335zM511.997 277.333c-94.252 0-170.664 76.418-170.664 170.664 0 94.252 76.418 170.669 170.664 170.669 94.252 0 170.669-76.418 170.669-170.669 0-94.246-76.418-170.664-170.669-170.664z" />
<glyph unicode="&#xe909;" glyph-name="camera-brightness" d="M512.876 688.193c-134.937 0-244.27-109.363-244.27-244.239 0-134.907 109.363-244.239 244.27-244.239 134.877 0 244.209 109.333 244.209 244.239 0 134.877-109.333 244.239-244.209 244.239zM512.876 288.515c-85.872 0-155.439 69.597-155.439 155.439s69.567 155.409 155.439 155.409c85.781 0 155.378-69.597 155.378-155.409 0-85.872-69.597-155.439-155.378-155.439zM557.261 845.957c0-24.306-19.687-43.993-43.993-43.993h-0.936c-24.246 0-43.932 19.687-43.932 43.993v67.484c0 24.306 19.687 43.993 43.932 43.993h0.966c24.276 0 43.993-19.687 43.993-43.993v-67.484zM261.933 695.47l-0.604-0.604c-17.18-17.18-44.989-17.18-62.169 0l-47.737 47.707c-17.18 17.15-17.18 45.019 0 62.169l0.634 0.634c17.15 17.18 44.989 17.18 62.169 0l47.737-47.737c17.12-17.15 17.12-44.989-0.030-62.169zM157.583 446.279c0-24.276-19.687-43.993-43.993-43.993h-67.484c-24.306 0-43.993 19.687-43.993 43.993v0.906c0 24.276 19.687 43.962 43.993 43.962h67.484c24.306 0 43.993-19.687 43.993-43.962v-0.906zM261.329 193.072l0.634-0.634c17.18-17.15 17.18-45.019 0-62.169l-47.737-47.737c-17.15-17.15-45.019-17.15-62.169 0l-0.634 0.634c-17.18 17.18-17.18 45.019 0 62.2l47.737 47.707c17.18 17.12 44.959 17.12 62.169 0zM557.261-20.038c0-24.306-19.687-43.962-43.993-43.962h-0.936c-24.246 0-43.932 19.656-43.932 43.962v67.514c0 24.306 19.687 43.962 43.932 43.962h0.966c24.276 0 43.993-19.656 43.993-43.962v-67.514zM763.727 192.408l0.634 0.634c17.18 17.12 45.019 17.12 62.2 0l47.737-47.737c17.15-17.18 17.15-45.019 0-62.2l-0.634-0.634c-17.18-17.15-45.019-17.15-62.23 0l-47.707 47.737c-17.15 17.18-17.15 45.049 0 62.2zM1023.547 446.279c0-24.276-19.687-43.993-43.993-43.993h-67.484c-24.276 0-43.962 19.687-43.962 43.993v0.906c0 24.276 19.687 43.962 43.962 43.962h67.484c24.306 0 43.993-19.687 43.993-43.962v-0.906zM764.362 694.866l-0.634 0.634c-17.18 17.18-17.18 45.019 0 62.169l47.707 47.737c17.18 17.18 45.019 17.18 62.2 0l0.634-0.634c17.15-17.18 17.15-45.019 0-62.169l-47.737-47.737c-17.15-17.211-44.989-17.211-62.169 0z" />
<glyph unicode="&#xe90a;" glyph-name="camera-lens-1" d="M512.018 960c-229.006 0-408.324-80.107-408.324-182.425v-540.142h0.306c1.698-45.945 39.512-87.301 101.85-118.658v-46.833h0.342c3.579-76.475 136.464-135.938 305.806-135.938 169.306 0 302.19 59.467 305.769 135.938h0.379v46.833c62.411 31.36 100.132 72.713 101.833 118.658h0.326v540.122c0 102.339-179.338 182.445-408.287 182.445zM512.018 927.031c224.559 0 375.355-77.286 375.355-149.477 0-47.391-65.376-96.825-173.662-125.295 26.661 18.473 42.041 41.263 42.041 66.442 0 65.176-102.249 114.322-237.845 114.322s-237.895-49.142-237.895-114.322c0-27.439 18.364-51.983 49.435-71.267-119.835 27.475-192.747 79.981-192.747 130.14 0 72.171 150.776 149.457 375.319 149.457zM136.699 487.783c61.906-64.944 204.84-109.314 375.319-109.314 170.515 0 313.432 44.373 375.355 109.314v-72.045c0-72.155-150.796-149.477-375.355-149.477-224.539 0-375.319 77.306-375.319 149.477v72.045zM512.018-31.031c-160.991 0-273.18 55.958-273.18 106.097v28.991c71.866-28.665 167.189-45.819 273.18-45.819 105.954 0 201.314 17.154 273.143 45.819v-28.991c0-50.139-112.135-106.097-273.143-106.097z" />
<glyph unicode="&#xe90b;" glyph-name="camera-lens-2" d="M972.599 905.492h-192.839c-28.319 0-51.421-23.082-51.421-51.441v-553.085h-567.882v477.706c0 2.45-2.031 4.461-4.441 4.461h-10.655c-2.41 0-4.441-2.031-4.441-4.461v-477.726h-115.209c-14.16 0-25.711-11.551-25.711-25.711v-10.655c0-14.16 11.551-25.711 25.711-25.711h40.249c1.852-30.47 13.343-99.158 77.092-157.27 66.557-60.642 168.343-91.072 303.946-91.072 53.751 0 113.079 5.058 177.305 14.598 7.189-6.911 18.163-8.882 27.543-4.162 11.909 6.054 16.689 20.513 10.615 32.482-6.034 11.929-20.533 16.649-32.442 10.615-5.795-2.908-9.878-7.886-11.909-13.642-213.75-31.426-371.717-7.508-457.054 70.002-55.782 50.505-66.816 111.406-68.887 138.411h884.852c4.083 0 7.867 1.075 11.232 2.748 20.652 6.692 35.748 25.87 35.748 48.713v563.74c0.020 28.379-23.042 51.461-51.401 51.461zM623.266 357.645h35.369c28.379 0 51.461 23.002 51.461 51.421v354.511c0 28.339-23.082 51.441-51.461 51.441h-35.369c-28.419 0-51.461-23.082-51.461-51.441v-354.57c0-28.359 23.082-51.361 51.461-51.361zM468.107 394.846h35.429c28.359 0 51.441 23.062 51.441 51.461v280.048c0 28.359-23.062 51.441-51.441 51.441h-35.429c-28.359 0-51.461-23.062-51.461-51.441v-280.068c0-28.379 23.102-51.441 51.461-51.441zM312.987 432.068h35.389c28.359 0 51.461 23.102 51.461 51.441v205.644c0 28.339-23.102 51.441-51.461 51.441h-35.389c-28.359 0-51.421-23.082-51.421-51.441v-205.624c0-28.379 23.062-51.461 51.421-51.461zM108.12 474.627h11.591v223.369h-11.591c-28.319 0-51.381-23.062-51.381-51.421v-120.547c0-28.319 23.022-51.401 51.381-51.401zM244.718 526.048v120.547c0 28.359-23.062 51.421-51.461 51.421h-11.511v-223.369h11.511c28.399-0.020 51.461 23.062 51.461 51.401z" />
<glyph unicode="&#xe90c;" glyph-name="camera-lens-3" d="M246.879 268.204c14.133 48.256 21.918 112.109 21.918 179.796s-7.782 131.54-21.918 179.796c-20.489 69.958-48 84.643-67.469 84.643s-46.98-14.685-67.469-84.643c-14.136-48.256-21.918-112.109-21.918-179.796s7.782-131.54 21.918-179.796c20.491-69.958 48-84.643 67.469-84.643s46.98 14.685 67.469 84.643zM144.337 277.692c-13.256 45.261-20.557 105.744-20.557 170.308s7.301 125.047 20.557 170.308c12.974 44.295 28.082 60.373 35.073 60.373s22.098-16.078 35.073-60.373c13.256-45.261 20.557-105.742 20.557-170.308s-7.301-125.047-20.557-170.308c-12.972-44.295-28.082-60.373-35.073-60.373s-22.098 16.078-35.073 60.373zM983.828 661.822c-27.835 61.667-66.461 95.628-108.762 95.628h-39.274c-29.106 42.684-64.782 67.516-103.728 67.516h-552.654c-100.602 0-179.409-165.584-179.409-376.967s78.807-376.967 179.409-376.967h552.652c38.948 0 74.624 24.833 103.728 67.516h39.274c42.301 0 80.928 33.961 108.762 95.628 25.908 57.394 40.175 133.332 40.175 213.822s-14.266 156.429-40.172 213.822zM79.867 200.323c-29.734 65.878-46.109 153.836-46.109 247.677s16.375 181.799 46.109 247.677c27.405 60.711 63.686 95.531 99.542 95.531s72.139-34.821 99.542-95.531c29.734-65.876 46.109-153.836 46.109-247.677s-16.375-181.799-46.109-247.677c-27.403-60.711-63.684-95.531-99.542-95.531s-72.137 34.821-99.542 95.531zM358.821 448c0 154.41-42.056 284.366-103.937 343.209h59.561c35.858 0 72.139-34.821 99.542-95.531 29.734-65.876 46.109-153.836 46.109-247.677s-16.375-181.799-46.109-247.677c-27.405-60.711-63.686-95.531-99.544-95.531h-59.561c61.883 58.843 103.939 188.799 103.939 343.209zM493.854 448c0 154.41-42.056 284.366-103.937 343.209h207.114c35.858 0 72.139-34.821 99.542-95.531 29.734-65.878 46.109-153.836 46.109-247.677 0-192.453-63.979-343.209-145.651-343.209h-207.114c61.881 58.843 103.937 188.799 103.937 343.209zM732.063 104.791h-56.894c20.703 19.431 39.162 46.949 54.488 81.792 30.169 68.588 46.782 161.427 46.782 261.417 0 154.41-42.056 284.366-103.937 343.209h59.561c35.858 0 72.139-34.821 99.542-95.531 29.734-65.878 46.109-153.836 46.109-247.677s-16.375-181.799-46.109-247.677c-27.403-60.711-63.686-95.531-99.542-95.531zM953.058 248.066c-21.731-48.146-50.158-75.758-77.993-75.758h-19.483c34.584 68.306 55.89 165.802 55.89 275.692s-21.306 207.386-55.89 275.692h19.483c27.835 0 56.264-27.612 77.993-75.758 23.977-53.124 37.184-124.129 37.184-199.934s-13.206-146.81-37.184-199.934zM653.497 669.679c9.322 0 16.879 7.557 16.879 16.879s-7.557 16.879-16.879 16.879h-149.806c-9.322 0-16.879-7.557-16.879-16.879s7.557-16.879 16.879-16.879h149.806zM523.626 527.519c0-9.322 7.557-16.879 16.879-16.879h149.806c9.322 0 16.879 7.557 16.879 16.879s-7.557 16.879-16.879 16.879h-149.806c-9.324 0-16.879-7.557-16.879-16.879zM690.318 385.36h-149.812c-9.322 0-16.879-7.557-16.879-16.879s7.557-16.879 16.879-16.879h149.812c9.322 0 16.879 7.557 16.879 16.879s-7.557 16.879-16.879 16.879zM670.376 209.442c0 9.322-7.557 16.879-16.879 16.879h-149.803c-9.322 0-16.879-7.557-16.879-16.879s7.557-16.879 16.879-16.879h149.803c9.322 0 16.879 7.555 16.879 16.879z" />
<glyph unicode="&#xe90d;" glyph-name="camera-lens-4" d="M641.662 870.132h-8.506c-11.54 0-20.898-9.356-20.898-20.898 0-11.538 9.358-20.898 20.898-20.898h8.506c11.542 0 20.898 9.36 20.898 20.898 0 11.542-9.356 20.898-20.898 20.898zM571.73 870.132l-215.332 0.004c-11.54 0-20.898-9.358-20.898-20.898s9.358-20.898 20.898-20.898l215.332-0.004c11.542 0 20.898 9.36 20.898 20.898 0 11.542-9.358 20.898-20.898 20.898zM575.786 235.912c-11.54 0-20.898-9.358-20.898-20.898v-6.886c0-11.542 9.356-20.898 20.898-20.898 11.54 0 20.898 9.358 20.898 20.898v6.886c0 11.538-9.358 20.898-20.898 20.898zM448.214 235.912c-11.54 0-20.898-9.358-20.898-20.898v-6.886c0-11.542 9.356-20.898 20.898-20.898s20.898 9.358 20.898 20.898v6.886c0.002 11.538-9.356 20.898-20.898 20.898zM703.354 235.912c-11.54 0-20.898-9.358-20.898-20.898v-6.886c0-11.542 9.356-20.898 20.898-20.898 11.54 0 20.898 9.358 20.898 20.898v6.886c0.002 11.538-9.358 20.898-20.898 20.898zM320.646 235.912c-11.54 0-20.898-9.358-20.898-20.898v-6.886c0-11.542 9.356-20.898 20.898-20.898s20.898 9.358 20.898 20.898v6.886c0 11.538-9.356 20.898-20.898 20.898zM879.816 844.332h-0.002c0 8.074-4.652 15.426-11.946 18.884-7.3 3.458-15.934 2.404-22.182-2.706l-39.838-32.572c-10.084 13.912-25.154 33.866-42.448 53.998-60.114 69.972-91.604 78.064-110.062 78.064h-282.68c-18.458 0-49.948-8.092-110.060-78.064-17.294-20.132-32.364-40.086-42.45-53.998l-39.836 32.574c-6.248 5.114-14.884 6.166-22.182 2.706-7.294-3.458-11.946-10.81-11.946-18.884v-162.798c0-4.76 1.612-9.178 4.332-12.718-0.006 0-0.010-0.002-0.014-0.002l54.722-71.324c0 0 0.268-177.080 0.726-178.8-0.006-0.002-0.012-0.004-0.020-0.004 7.098-26.636 14.984-56.618 16.85-64.338v-285.876c0-5.144 1.866-9.844 4.946-13.484-0.010-0.004-0.016-0.010-0.028-0.014l49.976-59.28 24.886-48.36c3.582-6.96 10.754-11.336 18.58-11.336h385.71c0.002 0 0.002 0 0.002 0 7.83 0 15.006 4.348 18.586 11.312l24.866 48.356 50 59.342c-0.004 0-0.008 0-0.012 0.002 3.072 3.636 4.928 8.33 4.928 13.462v285.874c1.866 7.72 9.752 37.704 16.85 64.338-0.008 0-0.014-0.002-0.022-0.002 0.46 1.72 0.728 178.806 0.728 178.806l54.722 71.324c-0.004 0.002-0.008 0.002-0.012 0.004 2.718 3.538 4.33 7.956 4.33 12.716v162.798zM692.102-22.232l-360.208 0.030-4.286 8.33h368.792l-4.298-8.36zM720.824 27.924h-417.656l-16.544 19.624 450.752 0.026-16.552-19.65zM761.424 89.37h-37.17v62.72c0 11.54-9.358 20.898-20.898 20.898s-20.898-9.358-20.898-20.898v-62.72h-85.772v62.72c0 11.54-9.358 20.898-20.898 20.898s-20.898-9.358-20.898-20.898v-62.72h-85.774v62.72c0 11.54-9.356 20.898-20.898 20.898-11.54 0-20.898-9.358-20.898-20.898v-62.72h-85.772v62.72c0 11.54-9.356 20.898-20.898 20.898-11.54 0-20.898-9.358-20.898-20.898v-62.72h-37.17v167.1h498.846v-167.1zM761.424 298.268h-498.848v37.398h498.846v-37.398zM765.948 377.466h-507.896c-1.61 6.23-3.794 14.552-6.748 25.706h521.39c-2.954-11.156-5.14-19.476-6.746-25.706zM778.978 444.968v0h-54.726v47.52c0 11.542-9.358 20.898-20.898 20.898s-20.898-9.356-20.898-20.898v-47.52h-85.772v47.52c0 11.542-9.358 20.898-20.898 20.898s-20.898-9.356-20.898-20.898v-47.52h-85.774v47.52c0 11.542-9.356 20.898-20.898 20.898-11.54 0-20.898-9.356-20.898-20.898v-47.52h-85.77v47.52c0 11.542-9.356 20.898-20.898 20.898-11.54 0-20.898-9.356-20.898-20.898v-47.52h-54.722v138.716h533.954v-138.716zM789.57 625.48h-555.14l-24.294 31.666c49.4-2.844 142.306-6.31 301.862-6.31s252.466 3.462 301.862 6.31l-24.29-31.666zM838.018 700.66h-0.002c-36.49-2.746-131.854-8.026-326.018-8.026-194.182 0-289.542 5.276-326.018 8.026v99.592l23.11-18.894c4.558-3.726 10.476-5.354 16.298-4.494 5.822 0.866 11.012 4.144 14.29 9.034 0.228 0.342 23.368 34.75 52.624 68.802 51.924 60.44 74.38 63.502 78.352 63.502h282.68c3.962 0 26.36-3.050 78.12-63.228 29.29-34.050 52.632-68.736 52.862-69.080 3.278-4.888 8.47-8.168 14.29-9.030 5.81-0.87 11.736 0.764 16.296 4.492l23.11 18.894v-99.59zM575.786 576.306c-11.54 0-20.898-9.356-20.898-20.898v-6.888c0-11.54 9.356-20.898 20.898-20.898 11.54 0 20.898 9.358 20.898 20.898v6.888c0 11.542-9.358 20.898-20.898 20.898zM448.214 576.306c-11.54 0-20.898-9.356-20.898-20.898v-6.888c0-11.54 9.356-20.898 20.898-20.898s20.898 9.358 20.898 20.898v6.888c0.002 11.542-9.356 20.898-20.898 20.898zM703.354 576.306c-11.54 0-20.898-9.356-20.898-20.898v-6.888c0-11.54 9.356-20.898 20.898-20.898 11.54 0 20.898 9.358 20.898 20.898v6.888c0.002 11.542-9.358 20.898-20.898 20.898zM320.646 576.306c-11.54 0-20.898-9.356-20.898-20.898v-6.888c0-11.54 9.356-20.898 20.898-20.898s20.898 9.358 20.898 20.898v6.888c0 11.542-9.356 20.898-20.898 20.898z" />
<glyph unicode="&#xe90e;" glyph-name="camera-settings" d="M932.415 751.662l-116.752 116.755c-7.215 7.215-18.421 8.572-27.15 3.289l-60.884-36.851c-29.594 16.531-61.28 29.765-94.563 39.203l-16.985 69.071c-2.437 9.906-11.322 16.87-21.524 16.87h-165.114c-10.202 0-19.087-6.964-21.523-16.872l-16.985-69.071c-33.282-9.439-64.969-22.672-94.563-39.203l-60.884 36.851c-8.728 5.283-19.936 3.925-27.15-3.289l-116.754-116.754c-7.215-7.215-8.572-18.421-3.289-27.149l36.851-60.884c-16.531-29.594-29.764-61.28-39.203-94.563l-69.071-16.985c-9.908-2.437-16.872-11.322-16.872-21.524v-165.114c0-10.202 6.964-19.087 16.872-21.523l69.071-16.985c9.439-33.282 22.672-64.969 39.203-94.563l-36.851-60.884c-5.283-8.728-3.925-19.935 3.289-27.149l116.752-116.756c7.215-7.213 18.421-8.571 27.15-3.289l60.884 36.851c29.594-16.531 61.279-29.762 94.563-39.203l16.985-69.071c2.436-9.906 11.321-16.872 21.523-16.872h165.114c10.202 0 19.087 6.964 21.523 16.872l16.985 69.071c33.282 9.44 64.969 22.672 94.563 39.203l60.884-36.851c8.728-5.283 19.936-3.925 27.15 3.289l116.755 116.755c7.215 7.215 8.571 18.421 3.289 27.149l-36.851 60.884c16.531 29.594 29.762 61.28 39.203 94.563l69.071 16.985c9.906 2.435 16.87 11.319 16.87 21.522v165.114c0 10.202-6.964 19.087-16.872 21.523l-69.071 16.985c-9.44 33.282-22.672 64.969-39.203 94.563l36.851 60.884c5.284 8.732 3.926 19.939-3.288 27.153zM512.001 216.957c-127.602 0-231.043 103.443-231.043 231.044s103.442 231.044 231.043 231.044 231.044-103.442 231.044-231.044c0-127.601-103.442-231.044-231.044-231.044z" />
<glyph unicode="&#xe90f;" glyph-name="camera-shutter" d="M307.381 828.725c0 0-128.669-47.835-204.655-227.74l419.189 79.242-214.533 148.498zM96.393 575.331c0 0-56.736-125.015 17.404-305.68l239.247 353.262-256.651-47.582zM129.827 251.848c0 0 47.835-128.669 227.74-204.655l-79.206 419.261-148.534-214.606zM383.222 40.897c0 0 125.015-56.7 305.68 17.404l-353.262 239.175 47.582-256.579zM713.616 68.831c0 0 128.706 47.835 204.655 227.813l-419.225-79.206 214.57-148.607zM907.163 627.942l-239.175-353.262 256.651 47.618c0-0.036 56.664 124.979-17.477 305.644zM891.133 645.744c0 0-47.835 128.669-227.777 204.619l79.206-419.189 148.57 214.57zM637.702 856.695c0 0-124.942 56.736-305.644-17.441l353.298-239.175-47.654 256.615zM512.036 960c-282.776 0-512.036-229.26-512.036-512 0-282.704 229.224-512 512.036-512 282.704 0 511.964 229.333 511.964 512 0.036 282.74-229.224 512-511.964 512zM512.036-24.415c-260.487 0-472.451 211.928-472.451 472.415s211.964 472.415 472.451 472.415c260.414 0 472.379-211.928 472.379-472.415s-211.964-472.415-472.379-472.415z" />
<glyph unicode="&#xe910;" glyph-name="camera-temp" d="M630.001 258.952v579.945c0 67.072-54.392 116.314-121.434 116.314h-2.44c-67.072 0-121.434-49.242-121.434-116.314v-579.915c-36.984-33.16-60.567-80.896-61.32-134.295-1.355-98.936 79.691-183.688 178.658-186.458 104.026-2.952 189.289 80.535 189.289 183.898 0 54.392-23.793 103.153-61.32 136.824zM492.484 0.331c-53.579 6.264-98.003 48.851-106.285 102.129-8.282 53.429 17.98 101.587 59.814 125.801v201.156c0 33.521 27.196 55.597 60.747 55.597h1.235c33.491 0 60.747-22.046 60.747-55.597v-201.156c36.623-21.203 61.289-60.747 61.289-106.104-0.030-72.644-63.157-130.53-137.547-121.826z" />
<glyph unicode="&#xe911;" glyph-name="camera-tripod" d="M809.322-38.872c0.933 6.418-0.432 13.247-4.279 18.982l-110.617 161.191c2.754-1.639 6.259-1.684 9.036 0.273 3.824 2.663 4.757 7.898 2.162 11.722l-38.397 55.126c-2.617 3.824-7.83 4.757-11.653 2.094-2.572-1.775-3.687-4.711-3.414-7.602l-113.371 165.242v72.060c14.658 6.76 24.877 21.486 24.877 38.648s-10.22 31.842-24.877 38.625v373.934h17.275c18.937 0 34.323 15.341 34.323 34.277s-15.386 34.3-34.323 34.3h-88.243c-18.937 0-34.277-15.363-34.277-34.3s15.341-34.277 34.277-34.277h3.778l-123.545-140.387c-10.174 4.871-20.712 4.461-26.311-1.889l-46.409-52.805c-7.42-8.467-3.3-24.217 9.286-35.279l2.617-2.344c12.541-10.993 28.769-13.11 36.144-4.643l46.409 52.782c5.576 6.373 4.598 16.911-1.502 26.425l116.83 132.785v-348.602c-14.635-6.783-24.9-21.486-24.9-38.648s10.265-31.865 24.9-38.648v-72.060l-113.78-165.766c0.478 3.095-0.728 6.259-3.391 8.126-3.824 2.64-9.013 1.707-11.722-2.117l-38.329-55.126c-2.663-3.824-1.73-9.013 2.094-11.699 3.118-2.185 7.124-1.821 9.946 0.455l-111.095-161.828c-3.983-5.781-5.235-12.609-4.302-18.982-21.964-2.117-37.305-6.669-37.305-11.927 0-7.283 28.542-13.201 63.798-13.201 35.211 0 63.798 5.918 63.798 13.201 0 5.076-13.907 9.355-34.050 11.608l214.359 312.435v-233.956c0-3.118 0.66-6.054 1.639-8.854-22.67-2.048-38.534-6.669-38.534-12.131 0-7.283 28.542-13.201 63.775-13.201 35.256 0 63.798 5.918 63.798 13.201 0 5.463-15.864 10.083-38.534 12.131 0.979 2.8 1.639 5.736 1.639 8.854v233.911l214.337-312.435c-20.189-2.231-34.050-6.532-34.050-11.608 0-7.283 28.587-13.201 63.798-13.201 35.256 0 63.798 5.918 63.798 13.201-0.205 5.303-15.545 9.855-37.487 11.927z" />
<glyph unicode="&#xe912;" glyph-name="camera-tripod-2" d="M595.739 638.228l228.273-107.345c3.23-1.519 6.67-2.287 10.197-2.287 9.236 0 17.792 5.43 21.72 13.793 2.724 5.797 3.056 12.309 0.873 18.333-2.183 6.041-6.548 10.86-12.379 13.566l-277.79 130.602 29.106-66.663zM472.907 395.096c-6.914 6.914-18.141 6.914-25.090 0l-70.94-70.94c-6.897-6.914-6.897-18.141 0-25.055 3.475-3.475 8.014-5.221 12.571-5.221 4.54 0 9.079 1.763 12.554 5.221l70.923 70.905c6.949 6.914 6.949 18.141-0.017 25.090zM576.096 395.096c-6.914 6.914-18.176 6.914-25.108 0-6.914-6.914-6.914-18.141 0-25.108l70.923-70.905c3.422-3.475 7.979-5.221 12.536-5.221 4.575 0 9.097 1.763 12.554 5.221 6.914 6.914 6.914 18.141 0 25.055l-70.905 70.958zM562.826 327.962h-103.556c-9.813 0-17.757-7.944-17.757-17.722 0-9.813 7.944-17.757 17.757-17.757h103.556c9.813 0 17.757 7.944 17.757 17.757-0.017 9.778-7.962 17.722-17.757 17.722zM484.396 157.639c0-15.208 12.344-27.569 27.552-27.569s27.587 12.362 27.587 27.569v126.533h-55.122v-126.533h-0.017zM871.923-25.378l-334.658 766.76c-4.382 10.040-14.3 16.517-25.247 16.517-10.982 0-20.9-6.495-25.265-16.517l-334.71-766.76c-2.933-6.775-3.073-14.23-0.367-21.109 2.654-6.879 7.875-12.24 14.632-15.208 3.509-1.536 7.194-2.322 11.017-2.322 10.947 0 20.9 6.513 25.265 16.552l281.823 645.675v-261.919h55.122v261.954l281.893-645.675c5.902-13.497 22.611-20.219 36.3-14.213 6.775 2.951 11.96 8.346 14.649 15.208 2.671 6.827 2.479 14.3-0.454 21.057zM427.93 769.213h170.096c16.517 0 29.979 13.462 29.979 30.258l-3.946 107.886c0 16.517-13.462 29.979-29.996 29.979h-30.241l-9.847 17.6c-1.467 2.235-4.714 5.063-12.1 5.063h-57.741c-7.403 0-10.633-2.829-12.1-5.063l-9.83-17.6h-5.727c-1.257 3.23-7.735 5.709-15.644 5.709-8.521 0-15.4-2.898-15.784-6.53-13.235-3.108-23.117-14.946-23.117-28.879l-3.929-108.445c-0.052-16.517 13.427-29.979 29.927-29.979zM435.507 796.085c12.24 0 22.192 9.935 22.192 22.471l-2.549 69.788c0 12.222-9.952 22.192-22.192 22.192h-15.033c1.432 6.408 7.124 11.209 13.951 11.209h162.239c7.909 0 14.352-6.425 14.352-14.632l3.911-107.886c0-7.909-6.443-14.352-14.335-14.352h-170.061c-6.914 0-12.676 4.906-14.073 11.227l21.598-0.017zM417.593 811.711l3.457 83.18h11.89c3.614 0 6.548-2.933 6.548-6.844l2.549-69.788c0-3.614-2.933-6.548-6.548-6.548h-17.897zM541.246 792.366c14.335 0 27.552 4.994 37.976 13.357 1.502-3.282 4.732-5.535 8.573-5.535 5.221 0 9.446 4.243 9.446 9.446 0 4.033-2.549 7.473-6.094 8.8 6.914 9.882 11.035 21.912 11.035 34.85 0 33.628-27.343 60.936-60.936 60.936-33.628 0-60.918-27.308-60.918-60.936-0.017-33.611 27.325-60.918 60.918-60.918zM541.246 898.593c25.020 0 45.309-20.324 45.309-45.309 0-24.968-20.289-45.292-45.309-45.292-24.968 0-45.292 20.324-45.292 45.292 0 24.985 20.341 45.309 45.292 45.309z" />
<glyph unicode="&#xe913;" glyph-name="camera-waterproof" d="M16.879 926.242c36.585 0 53.847-10.357 73.836-22.35 21.216-12.731 45.265-27.162 91.199-27.162 45.931 0 69.983 14.431 91.199 27.162 19.985 11.993 37.247 22.35 73.829 22.35 36.585 0 53.847-10.357 73.836-22.35 21.218-12.731 45.268-27.162 91.201-27.162 45.936 0 69.988 14.431 91.204 27.162 19.989 11.993 37.253 22.35 73.838 22.35 36.587 0 53.851-10.357 73.843-22.35 21.218-12.731 45.27-27.162 91.208-27.162 45.936 0 69.988 14.431 91.206 27.162 19.992 11.991 37.256 22.35 73.843 22.35 9.324 0 16.879 7.557 16.879 16.879s-7.555 16.879-16.879 16.879c-45.938 0-69.99-14.431-91.208-27.162-19.989-11.993-37.253-22.35-73.841-22.35s-53.851 10.357-73.843 22.35c-21.218 12.731-45.27 27.162-91.208 27.162-45.936 0-69.988-14.431-91.204-27.162-19.989-11.993-37.253-22.35-73.838-22.35s-53.847 10.357-73.836 22.35c-21.216 12.731-45.268 27.162-91.201 27.162-45.931 0-69.981-14.431-91.199-27.162-19.987-11.993-37.247-22.35-73.829-22.35s-53.844 10.357-73.834 22.35c-21.216 12.731-45.268 27.162-91.201 27.162-9.324 0-16.879-7.557-16.879-16.879s7.555-16.879 16.879-16.879zM1007.121 826.092c-45.938 0-69.99-14.431-91.208-27.162-19.989-11.993-37.253-22.35-73.841-22.35s-53.851 10.357-73.843 22.35c-21.22 12.731-45.27 27.162-91.208 27.162-45.936 0-69.988-14.431-91.204-27.162-19.989-11.993-37.253-22.35-73.838-22.35s-53.847 10.357-73.836 22.35c-21.218 12.731-45.268 27.162-91.201 27.162-45.931 0-69.981-14.431-91.199-27.162-19.987-11.993-37.247-22.35-73.829-22.35s-53.844 10.357-73.834 22.35c-21.216 12.731-45.268 27.162-91.201 27.162-9.324 0-16.879-7.557-16.879-16.879s7.555-16.879 16.879-16.879c36.585 0 53.847-10.357 73.836-22.35 21.216-12.731 45.265-27.162 91.199-27.162 45.931 0 69.983 14.431 91.199 27.162 19.985 11.993 37.247 22.35 73.829 22.35 36.585 0 53.847-10.357 73.836-22.35 21.218-12.731 45.268-27.162 91.201-27.162 45.936 0 69.988 14.431 91.204 27.162 19.989 11.993 37.253 22.35 73.838 22.35 36.587 0 53.851-10.357 73.843-22.35 21.22-12.731 45.27-27.162 91.208-27.162 45.936 0 69.988 14.431 91.206 27.162 19.992 11.993 37.256 22.35 73.843 22.35 9.324 0 16.879 7.557 16.879 16.879s-7.555 16.879-16.879 16.879zM917.099 602.163h-144.89c-73.998 58.096-166.154 90.022-260.209 90.022s-186.21-31.926-260.209-90.022h-144.89c-58.944 0-106.901-47.957-106.901-106.901v-452.36c0-58.944 47.957-106.901 106.901-106.901h810.198c58.944 0 106.901 47.957 106.901 106.901v452.36c0 58.944-47.957 106.901-106.901 106.901zM990.242 42.901c0-40.33-32.811-73.143-73.143-73.143h-810.198c-40.332 0-73.143 32.813-73.143 73.143v452.36c0 40.33 32.811 73.143 73.143 73.143h150.791c3.864 0 7.609 1.326 10.614 3.754 68.79 55.631 155.335 86.268 243.694 86.268s174.904-30.637 243.694-86.268c3.004-2.431 6.749-3.754 10.614-3.754h150.791c40.332 0 73.143-32.813 73.143-73.143v-452.36zM512 534.646c-145.813 0-264.44-118.626-264.44-264.44s118.626-264.44 264.44-264.44 264.44 118.626 264.44 264.44-118.626 264.44-264.44 264.44zM512 39.525c-127.199 0-230.681 103.483-230.681 230.681s103.483 230.681 230.681 230.681 230.681-103.483 230.681-230.681-103.483-230.681-230.681-230.681zM512 444.624c-96.173 0-174.418-78.243-174.418-174.418s78.245-174.418 174.418-174.418 174.418 78.243 174.418 174.418-78.245 174.418-174.418 174.418zM512 129.547c-77.561 0-140.659 63.101-140.659 140.659s63.099 140.659 140.659 140.659 140.659-63.101 140.659-140.659-63.099-140.659-140.659-140.659zM229.558 635.921c9.324 0 16.879 7.557 16.879 16.879s-7.555 16.879-16.879 16.879h-94.523c-9.324 0-16.879-7.557-16.879-16.879s7.555-16.879 16.879-16.879h94.523zM872.088 512.141c-34.125 0-61.89-27.763-61.89-61.89s27.765-61.89 61.89-61.89 61.89 27.763 61.89 61.89-27.765 61.89-61.89 61.89zM872.088 422.119c-15.513 0-28.132 12.619-28.132 28.132s12.619 28.132 28.132 28.132 28.132-12.619 28.132-28.132-12.619-28.132-28.132-28.132z" />
<glyph unicode="&#xe914;" glyph-name="canera-tripod-3" d="M906.206 892.22h-209.61c-27.007 0-49.885-18.015-57.253-42.658h-288.527c-9.487 6.008-20.149 10.317-31.557 12.49v63.769h48.776c9.438 0 17.090 7.651 17.090 17.090s-7.651 17.090-17.090 17.090h-131.732c-9.438 0-17.090-7.651-17.090-17.090s7.651-17.090 17.090-17.090h48.776v-63.769c-36.552-6.965-65.451-35.839-72.524-72.419h-71.274c-22.702 0-41.174-18.471-41.174-41.174v-40.876c0-19.597 13.764-36.042 32.133-40.173v-79.001h-23.369c-22.702 0-41.174-18.469-41.174-41.174v-40.876c0-15.737 8.877-29.441 21.885-36.367v-387.256c0-14.971 5.535-28.674 14.665-39.167-27.568-17.932-46.196-51.772-46.196-90.48 0-9.438 7.651-17.090 17.090-17.090h148.375c0.757 0 1.501 0.049 2.231 0.144 0.73-0.095 1.475-0.144 2.234-0.144h148.377c0.757 0 1.501 0.049 2.234 0.144 0.73-0.095 1.475-0.144 2.234-0.144h148.372c9.438 0 17.090 7.651 17.090 17.090 0 38.711-18.625 72.55-46.196 90.48 9.131 10.495 14.665 24.197 14.665 39.167v387.256c13.008 6.926 21.882 20.632 21.882 36.367v40.876c0 22.702-18.469 41.174-41.171 41.174h-23.366v79.001c18.371 4.128 32.136 20.574 32.136 40.173v40.876c0 22.702-18.471 41.174-41.176 41.174h-71.271c-1.768 9.136-4.897 17.798-9.165 25.749h256.716c7.368-24.643 30.246-42.656 57.255-42.656h209.61c32.944 0 59.743 26.801 59.743 59.743-0.002 32.946-26.804 59.75-59.745 59.75zM302.172 829.481c25.429 0 47.031-16.76 54.399-39.846h-108.795c7.366 23.083 28.967 39.846 54.396 39.846zM101.876 506.36v40.876c0 3.791 3.203 6.995 6.995 6.995h80.915c3.791 0 6.995-3.203 6.995-6.995v-40.876c0-3.56-2.825-6.601-6.309-6.958-0.046-0.002-0.095-0.007-0.142-0.012-0.181-0.015-0.361-0.022-0.544-0.022h-80.915c-0.186 0-0.369 0.007-0.552 0.022-0.044 0.002-0.088 0.007-0.129 0.012-3.484 0.354-6.313 3.398-6.313 6.958zM342.626 554.231c3.791 0 6.995-3.203 6.995-6.995v-40.876c0-3.56-2.825-6.601-6.309-6.958-0.046-0.002-0.095-0.007-0.142-0.012-0.181-0.015-0.361-0.022-0.544-0.022h-80.917c-0.176 0-0.352 0.007-0.525 0.020-0.059 0.005-0.12 0.012-0.181 0.017-3.474 0.366-6.289 3.403-6.289 6.955v40.876c0 3.791 3.203 6.995 6.995 6.995h80.917zM319.259 588.41v78h118.663v-78h-23.369c-15.437 0-28.916-8.54-35.962-21.142-7.048 12.602-20.527 21.142-35.964 21.142h-23.369zM327.736 465.189v-382.452c0-14.097-11.47-25.566-25.571-25.566-14.094 0-25.564 11.47-25.564 25.566v382.452h51.135zM285.080 588.41h-23.369c-15.434 0-28.913-8.538-35.962-21.137-7.048 12.6-20.527 21.137-35.962 21.137h-23.366v78h118.661v-78zM174.896 465.189v-382.452c0-14.097-11.47-25.566-25.569-25.566-14.097 0-25.566 11.47-25.566 25.566v382.452h51.135zM93.956-29.821c6.245 30.312 28.703 52.812 55.373 52.812s49.128-22.502 55.37-52.812h-110.743zM225.749 9.954c-7.947 13.84-18.703 25.398-31.34 33.618 9.131 10.493 14.665 24.197 14.665 39.167v387.254c6.999 3.728 12.805 9.419 16.672 16.333 3.867-6.916 9.673-12.607 16.677-16.335v-387.254c0-14.971 5.535-28.672 14.665-39.167-12.639-8.218-23.393-19.775-31.34-33.615zM246.797-29.821c6.245 30.312 28.701 52.812 55.373 52.812s49.13-22.502 55.375-52.812h-110.748zM378.592 9.952c-7.947 13.838-18.706 25.4-31.342 33.618 9.131 10.495 14.665 24.197 14.665 39.167v387.256c7.002 3.728 12.807 9.421 16.675 16.338 3.867-6.916 9.673-12.61 16.675-16.338v-387.256c0-14.971 5.535-28.674 14.665-39.167-12.634-8.218-23.393-19.78-31.338-33.618zM510.383-29.821h-110.741c6.243 30.312 28.701 52.812 55.37 52.812s49.128-22.5 55.37-52.812zM429.444 82.737v382.452h51.135v-382.452c0-14.097-11.472-25.566-25.571-25.566-14.097 0.002-25.564 11.472-25.564 25.566zM495.468 554.231c3.791 0 6.992-3.203 6.992-6.995v-40.876c0-3.56-2.825-6.601-6.306-6.958-0.046-0.002-0.095-0.007-0.142-0.012-0.178-0.015-0.361-0.022-0.544-0.022h-80.915c-0.183 0-0.364 0.007-0.544 0.022-0.046 0.002-0.093 0.007-0.142 0.012-3.484 0.356-6.306 3.398-6.306 6.958v40.876c0 3.791 3.203 6.995 6.992 6.995h80.915zM463.059 755.454c3.794 0 6.997-3.203 6.997-6.995v-40.876c0-3.791-3.206-6.995-6.997-6.995h-321.776c-3.791 0-6.995 3.203-6.995 6.995v40.876c0 3.791 3.203 6.995 6.995 6.995h321.776zM906.206 806.906h-209.61c-14.097 0-25.564 11.467-25.564 25.564 0 14.099 11.467 25.571 25.564 25.571h209.61c14.097 0 25.564-11.47 25.564-25.571 0-14.094-11.47-25.564-25.564-25.564z" />
<glyph unicode="&#xe915;" glyph-name="contrast" horiz-adv-x="1026" d="M513.955 960c-282.785 0-512-229.215-512-512 0-282.754 229.215-512 512-512 282.754 0 512 229.246 512 512 0 282.785-229.246 512-512 512zM513.955 15.989c-238.622 0-432.011 193.42-432.011 432.011 0 238.622 193.39 432.011 432.011 432.011v-864.023z" />
<glyph unicode="&#xe916;" glyph-name="crop" horiz-adv-x="1022" d="M1021.741 266.692v-131.855h-824.019v428.514h131.855v-296.659h362.556v362.586h-692.134v131.825h197.722v197.752h131.855v-197.752h494.411v-494.411h197.752zM692.134-62.886h131.855v131.825h-131.855v-131.825z" />
<glyph unicode="&#xe917;" glyph-name="dslr-flash" d="M814.348 448.634h-56.101c-8.29 0-20.382 3.828-24.21 15.921l-19.773 47.835c-12.117 28.038-40.155 43.983-64.414 43.983h-15.945v12.142c8.314 0 12.142 4.145 12.142 11.776v23.893h36.328c31.89 0 59.928 23.918 59.928 56.125v239.762c0 32.183-28.038 59.928-59.928 59.928h-192.561c-31.866 0-59.928-27.746-59.928-59.928v-239.738c0-32.183 28.062-56.125 59.928-56.125h36.352v-23.893c0-7.631 7.631-11.776 12.117-11.776v-12.142h-12.117c-28.062 0-56.125-15.921-68.218-43.983l-19.773-47.835c-4.486-12.093-12.142-15.921-24.235-15.921h-107.764c-4.486 0-8.29 0-8.29 7.973l-3.828 4.145c-3.828 7.631-12.117 11.776-19.773 11.776h-20.382c-7.656 0-15.945-4.145-19.773-11.776l-4.486-4.145c0-7.973-3.803-7.973-7.631-7.973h-15.921c-47.835-0.024-84.187-36.035-84.187-84.187v-331.581c0-47.811 36.352-87.966 84.187-87.966h608.256c44.008 0 84.163 40.155 84.163 87.966v331.581c0.024 48.152-40.155 84.163-84.163 84.163v0zM489.813 784.335c-19.773 0-35.694 12.117-35.694 36.059v79.677c0 20.066 15.921 36.035 35.694 36.035h192.561c19.773 0 35.718-15.945 35.718-36.035v-79.701c0-23.918-15.945-36.059-35.718-36.059h-192.561zM574.001 568.515h24.21v-12.142h-24.21v12.142zM366.129 304.859c-15.921 0-28.038 15.945-28.038 27.746 0 20.066 12.117 31.89 28.038 31.89s28.062-11.8 28.062-31.89c0-11.8-12.142-27.746-28.062-27.746v0zM577.804 16.969c-99.474 0-183.613 84.163-183.613 187.782 0 100.084 84.139 183.954 183.613 183.954 104.57 0 188.733-83.846 188.733-183.954 0-103.619-84.163-187.782-188.733-187.782v0zM730.185 204.751c0-83.846-68.218-151.771-152.381-151.771-79.726 0-147.919 67.901-147.919 151.771 0 79.994 68.218 147.895 147.919 147.895 84.163 0.024 152.381-67.877 152.381-147.895v0z" />
<glyph unicode="&#xe918;" glyph-name="exposure" horiz-adv-x="1019" d="M913.803 955.25h-808.386c-58.215 0-105.417-47.201-105.417-105.417v-808.416c0-58.276 47.201-105.417 105.417-105.417h808.386c58.276 0 105.477 47.171 105.477 105.417v808.416c0.030 58.215-47.201 105.417-105.477 105.417zM878.704 182.023h-316.341v87.837h316.341v-87.837zM70.288 6.258v843.575c0 19.365 15.794 35.129 35.159 35.129h843.606l-878.765-878.704zM474.496 586.201h-105.447v-105.417h-87.867v105.417h-105.447v87.867h105.447v105.447h87.837v-105.447h105.447v-87.867z" />
<glyph unicode="&#xe919;" glyph-name="film" d="M905.818 960.753h-780.529c-35.93 0-65.054-29.124-65.054-65.024v-894.374c0-35.9 29.124-65.024 65.054-65.024h780.529c35.93 0 65.054 29.124 65.054 65.024v894.374c0 35.9-29.094 65.024-65.054 65.024zM239.104 1.355c0-8.975-7.288-16.264-16.264-16.264h-97.551c-8.975 0-16.294 7.288-16.294 16.264v81.288c0 8.975 7.319 16.264 16.294 16.264h97.551c8.975 0 16.264-7.288 16.264-16.264v-81.288zM239.104 163.93c0-8.945-7.288-16.233-16.264-16.233h-97.551c-8.975 0-16.294 7.288-16.294 16.233v81.318c0 8.975 7.319 16.264 16.294 16.264h97.551c8.975 0 16.264-7.288 16.264-16.264v-81.318zM239.104 326.596c0-9.005-7.288-16.294-16.264-16.294h-97.551c-8.975 0-16.294 7.288-16.294 16.294v81.288c0 8.975 7.319 16.264 16.294 16.264h97.551c8.975 0 16.264-7.288 16.264-16.264v-81.288zM239.104 489.171c0-8.975-7.288-16.264-16.264-16.264h-97.551c-8.975 0-16.294 7.258-16.294 16.264v81.348c0 8.915 7.319 16.264 16.294 16.264h97.551c8.975 0 16.264-7.349 16.264-16.264v-81.348zM239.104 651.776c0-8.975-7.288-16.233-16.264-16.233h-97.551c-8.975 0-16.294 7.258-16.294 16.233v81.318c0 8.975 7.319 16.264 16.294 16.264h97.551c8.975 0 16.264-7.258 16.264-16.264v-81.318zM239.104 814.411c0-8.975-7.288-16.264-16.264-16.264h-97.551c-8.975 0-16.294 7.258-16.294 16.264v81.318c0 8.945 7.319 16.294 16.294 16.294h97.551c8.975 0 16.264-7.349 16.264-16.294v-81.318zM743.213 1.355c0-8.975-7.258-16.264-16.264-16.264h-422.792c-8.975 0-16.264 7.288-16.264 16.264v406.528c0 8.975 7.288 16.264 16.264 16.264h422.792c9.005 0 16.264-7.288 16.264-16.264v-406.528zM726.95 472.937h-422.792c-8.975 0-16.264 7.258-16.264 16.264v406.528c0 8.945 7.288 16.294 16.264 16.294h422.792c9.005 0 16.264-7.349 16.264-16.294v-406.558c0-8.975-7.258-16.233-16.264-16.233zM922.112 1.355c0-8.975-7.319-16.264-16.294-16.264h-97.551c-9.005 0-16.264 7.288-16.264 16.264v81.288c0 8.975 7.258 16.264 16.264 16.264h97.551c8.975 0 16.294-7.288 16.294-16.264v-81.288zM922.112 163.93c0-8.945-7.319-16.233-16.294-16.233h-97.551c-9.005 0-16.264 7.288-16.264 16.233v81.318c0 8.975 7.258 16.264 16.264 16.264h97.551c8.975 0 16.294-7.288 16.294-16.264v-81.318zM922.112 326.596c0-9.005-7.319-16.294-16.294-16.294h-97.551c-9.005 0-16.264 7.288-16.264 16.294v81.288c0 8.975 7.258 16.264 16.264 16.264h97.551c8.975 0 16.294-7.288 16.294-16.264v-81.288zM922.112 489.171c0-8.975-7.319-16.264-16.294-16.264h-97.551c-9.005 0-16.264 7.258-16.264 16.264v81.348c0 8.915 7.258 16.264 16.264 16.264h97.551c8.975 0 16.294-7.349 16.294-16.264v-81.348zM922.112 651.776c0-8.975-7.319-16.233-16.294-16.233h-97.551c-9.005 0-16.264 7.258-16.264 16.233v81.318c0 8.975 7.258 16.264 16.264 16.264h97.551c8.975 0 16.294-7.258 16.294-16.264v-81.318zM922.112 814.411c0-8.975-7.319-16.264-16.294-16.264h-97.551c-9.005 0-16.264 7.258-16.264 16.264v81.318c0 8.945 7.258 16.294 16.264 16.294h97.551c8.975 0 16.294-7.349 16.294-16.294v-81.318z" />
<glyph unicode="&#xe91a;" glyph-name="image" d="M965.578 907.992h-900.123c-36.163 0-65.455-33.549-65.455-74.941v-768.189c0-41.391 29.292-74.968 65.455-74.968h900.123c36.136 0 65.482 33.576 65.482 74.968v768.189c0 41.391-29.346 74.941-65.482 74.941zM965.578 833.051v-545.091l-128.997 134.306c-19.402 20.184-49.233 19.375-67.773-1.886l-130.587-149.423-257.428 352.040c-19.456 26.624-55.080 26.893-74.86 0.593l-240.478-319.973v529.435h900.123zM687.347 636.335c0 56.94 40.286 103.047 90.031 103.047 49.718 0 90.004-46.107 90.004-103.047s-40.286-103.047-90.004-103.047c-49.745 0-90.031 46.080-90.031 103.047z" />
<glyph unicode="&#xe91b;" glyph-name="image-polaroid-many" d="M990.449 829.47l-77.764-743.906c-2.68-25.48-23.401-44.454-48.188-45.99l-9.517 207.661 22.468-2.349 61.711 590.005-654.185 68.307-8.674-82.703-52.073-2.409 9.457 90.473c2.952 28.371 28.28 48.911 56.651 45.96l654.155-68.397c28.371-2.952 48.851-28.311 45.96-56.651zM805.316 767.307l34.244-747.219c1.295-28.431-20.661-52.585-49.152-53.88l-656.986-30.148c-28.461-1.295-52.585 20.691-53.911 49.182l-34.304 747.159c-1.295 28.491 20.721 52.616 49.152 53.911l656.986 30.118c28.552 1.295 52.646-20.691 53.971-49.122zM123.934 142.155l656.956 30.178-27.166 592.595-656.956-30.148 27.166-592.625zM747.008 348.973c-0.843 18.251-8.102 35.659-20.54 49.062l-46.231 49.784c-16.053 15.42-41.562 14.246-56.139-2.53l-83.607-96.798-181.579 223.684c-15.601 19.275-45.146 19.064-60.356-0.452l-141.944-187.061c-10.933-14.426-16.504-32.196-15.661-50.327l7.56-165.195 605.485 27.768-6.987 152.064zM640.813 553.201c39.153 1.807 69.391 34.936 67.614 74.089-1.807 39.153-34.936 69.391-74.089 67.614-39.183-1.807-69.391-34.967-67.584-74.089 1.777-39.183 34.936-69.421 74.059-67.614z" />
<glyph unicode="&#xe91c;" glyph-name="image-polaroid-single" d="M909.011 954.519h-787.064c-34.093 0-61.711-27.618-61.711-61.711v-895.036c0-34.123 27.618-61.771 61.711-61.771h787.034c34.093 0 61.741 27.648 61.741 61.771v895.036c0 34.093-27.648 61.711-61.711 61.711zM121.946 892.808h787.034v-709.873h-787.034v709.873zM878.14 213.805h-725.293v197.933c0 21.685 7.59 42.677 21.474 59.332l179.923 215.733c19.305 22.528 54.633 21.143 72.222-2.771l204.77-277.293 105.231 111.104c18.372 19.275 48.941 19.275 67.313 0l52.465-62.103c14.125-16.715 21.926-37.888 21.926-59.784v-182.152zM677.527 730.775c0 46.923 37.978 84.872 84.902 84.872 46.893 0 84.841-37.948 84.841-84.872s-37.978-84.872-84.841-84.872c-46.923 0-84.902 37.948-84.902 84.872z" />
<glyph unicode="&#xe91d;" glyph-name="iso" d="M523.163 629.059c-122.597 0-222.448-99.775-222.448-222.448 0-122.635 99.756-222.467 222.448-222.467 52.4 0 100.556 18.311 138.623 48.765 5.425-11.896 17.359-20.214 31.311-20.214 19.072 0 34.489 15.455 34.489 34.489 0 14.713-9.231 27.237-22.231 32.129 25.277 36.088 40.218 79.942 40.218 127.279 0.057 122.711-99.718 222.467-222.41 222.467zM523.163 241.283c-91.172 0-165.347 74.156-165.347 165.366 0 91.153 74.156 165.366 165.347 165.366s165.366-74.156 165.366-165.366c0-91.21-74.194-165.366-165.366-165.366zM624.252 430.099l-65.533-38.068c-0.4-0.228-0.761-0.419-1.123-0.78l-10.145-5.824c-3.122-1.827-5.044-5.158-5.082-8.756 0-3.578 1.96-6.947 5.082-8.794l57.101-33.119c1.599-0.914 3.312-1.37 5.101-1.37 3.122 0 6.167 1.447 8.166 4.168 14.637 19.928 22.65 44.463 22.65 69.074 0 5.31-0.381 10.716-1.161 16.141-0.4 3.331-2.57 6.205-5.539 7.652-3.083 1.523-6.643 1.37-9.517-0.324zM452.529 482.366l65-37.382c0.4-0.228 0.723-0.381 1.104-0.514l10.64-6.091c1.561-0.933 3.312-1.332 5.044-1.332 1.789 0 3.54 0.4 5.101 1.332 3.122 1.808 5.082 5.158 5.082 8.737v66.104c0 5.158-3.902 9.498-9.060 10.031-29.826 3.198-60.185-5.615-84.015-24.116-2.665-2.037-4.092-5.31-3.902-8.698 0.171-3.369 2.075-6.376 5.006-8.070zM567.588 515.085c-3.122 1.256-6.662 0.933-9.441-0.971-2.817-1.903-4.492-5.063-4.492-8.375v-88.374c0-3.597 1.98-6.909 5.12-8.756 1.58-0.914 3.293-1.313 5.082-1.313 1.751 0 3.502 0.438 5.063 1.351l57.101 33.138c4.492 2.608 6.281 8.185 4.187 12.905-12.505 27.542-34.699 48.974-62.621 60.394zM593.474 330.533l-76.288 44.349c-3.16 1.808-6.985 1.827-10.145 0-3.122-1.827-5.082-5.158-5.082-8.775v-66.028c0-5.158 3.902-9.517 9.079-9.993 4.073-0.419 8.166-0.704 12.163-0.704 25.524 0 50.82 8.698 71.339 24.382 2.741 2.037 4.206 5.31 3.94 8.698-0.247 3.35-2.151 6.395-5.006 8.070zM503.539 436.513c0 3.578-1.941 6.966-5.101 8.775l-56.987 32.795c-4.473 2.57-10.183 1.37-13.209-2.817-14.371-19.871-22.327-44.177-22.327-68.598 0-4.987 0.324-9.993 0.952-14.98 0.419-3.312 2.531-6.224 5.539-7.728 1.389-0.704 2.95-1.085 4.492-1.085 1.732 0 3.464 0.4 4.987 1.332l76.535 43.568c3.217 1.751 5.12 5.063 5.12 8.737zM477.577 405.241l-57.558-32.814c-4.511-2.57-6.319-8.070-4.264-12.829 12.296-28.075 34.623-49.85 63.040-61.479 1.199-0.495 2.57-0.723 3.807-0.723 1.98 0 3.959 0.571 5.653 1.732 2.817 1.865 4.454 5.025 4.454 8.356v88.888c0 3.578-1.922 6.947-5.044 8.737-3.103 1.865-6.928 1.865-10.088 0.133zM523.163 557.549c-83.197 0-150.881-67.741-150.881-150.938 0-83.235 67.703-150.938 150.881-150.938 83.216 0 150.938 67.703 150.938 150.938 0 83.216-67.722 150.938-150.938 150.938zM523.163 275.963c-72.024 0-130.629 58.605-130.629 130.648 0 72.081 58.605 130.705 130.629 130.705 72.081 0 130.705-58.624 130.705-130.705 0.019-72.024-58.624-130.648-130.705-130.648zM943.144 784.832h-162.967c-41.475 0-75.564-31.177-80.323-71.339h-94.427l-35.936 64.239c-5.387 8.242-17.13 18.52-44.177 18.52h-210.799c-27.066 0-38.81-10.278-44.177-18.52l-35.955-64.239h-20.994c-4.587 11.801-28.246 20.823-56.987 20.823-31.12 0-56.283-10.583-57.691-23.811-48.327-11.363-84.434-54.589-84.434-105.428l-14.275-395.846c0-60.375 49.107-109.482 109.482-109.482h620.826c60.375 0 109.482 49.107 109.444 110.548l-13.152 364.041h116.506c44.729 0 80.894 36.202 80.894 80.913v48.727c0.038 44.672-36.202 80.856-80.856 80.856zM738.493 741.873c0 1.884 1.561 3.236 3.426 3.236h28.132c1.922 0 3.445-1.37 3.445-3.236v-120.522c0-1.903-1.561-3.445-3.445-3.445h-28.132c-1.865 0-3.426 1.561-3.426 3.445v120.522zM730.308 156.849h-620.807c-25.182 0-46.309 17.854-51.258 40.866h78.8c44.653 0 80.97 36.336 80.97 82.036l-9.212 254.768c0 44.653-36.317 80.97-81.008 80.97h-55.027c5.253 23.393 26.095 40.923 51.049 40.923h575.544v-1.18c0-41.037 30.53-74.879 70.178-80.113l13.267-365.906c-0.114-28.874-23.564-52.362-52.495-52.362zM833.338 616.345c-13.99 0-25.486 1.922-34.546 4.454-1.713 0.514-3.578 1.542-3.578 3.426v21.051c0 2.379 1.085 3.578 3.578 3.445 7.404-0.685 25.715-2.589 34.756-2.589 8.356 0 10.773 3.236 10.773 8.717 0 3.426-1.713 5.291-8.070 9.098l-24.649 14.561c-16.103 9.403-20.347 21.032-20.347 34.242 0 18.634 10.259 34.071 44.806 34.071 13.533 0 31.863-2.227 38.886-4.302 1.561-0.495 3.083-1.351 3.083-3.236v-21.413c0-1.903-0.704-3.426-3.445-3.236-7.023 0.495-26.571 2.208-38.886 2.208-6.319 0-8.527-2.208-8.527-5.805 0-3.083 1.561-4.797 8.889-8.737l23.126-12.315c16.617-8.908 22.612-20.214 22.612-34.413 0-19.186-13.152-39.229-48.46-39.229zM1001.692 672.685c0-41.779-24.192-56.34-52.571-56.34-28.437 0-52.609 14.561-52.609 56.34v17.625c0 41.798 24.192 56.511 52.609 56.511 28.398 0 52.571-14.675 52.571-56.511v-17.625zM949.14 716.158c-11.991 0-17.264-7.537-17.264-25.848v-17.625c0-18.311 5.253-25.696 17.264-25.696 11.991 0 17.283 7.385 17.283 25.696v17.625c0 18.311-5.329 25.848-17.283 25.848z" />
<glyph unicode="&#xe91e;" glyph-name="memory-card" d="M893.892 764.536l-140.981 170.255c-12.198 13.192-29.425 20.721-47.375 20.721h-535.703c-35.569 0-64.422-28.853-64.422-64.452v-886.121c0-35.599 28.853-64.422 64.422-64.422h676.713c35.599 0 64.482 28.823 64.482 64.422v715.927c-0.030 16.203-6.204 31.804-17.137 43.671zM749.839 874.978l48.339-48.369v-80.535h-48.339v128.904zM653.161 907.174h48.339v-128.873h-48.339v128.873zM556.484 907.174h48.369v-128.873h-48.369v128.873zM459.836 907.174h48.339v-128.873h-48.339v128.873zM363.159 907.174h48.339v-128.873h-48.339v128.873zM266.511 907.174h48.339v-128.873h-48.339v128.873zM169.833 907.174h48.339v-128.873h-48.339v128.873zM830.404 21.052h-644.488v402.763h644.488v-402.763z" />
<glyph unicode="&#xe91f;" glyph-name="memory-card-32" d="M666.684 204.68h-9.728v29.304h10.722c12.83 0 18.101-5.481 18.101-14.276-0.030-9.487-6.596-15.029-19.095-15.029zM667.979 189.591h-11.053v-33.792h11.384c13.432 0 21.263 5.632 21.263 16.625 0.030 11.204-7.499 17.167-21.594 17.167zM782.848 749.417v-645.15c0-8.945-7.228-16.113-16.113-16.113h-532.269c-8.915 0-16.143 7.168-16.143 16.113v645.15c0 8.885 7.228 16.113 16.143 16.113h532.269c8.855-0.030 16.113-7.228 16.113-16.113zM375.326 184.169c0 21.685-11.716 33.551-31.925 39.544 17.137 5.933 29.064 17.167 29.064 37.888 0 23.341-17.86 42.165-53.85 42.165-20.721 0-36.924-5.993-49.333-14.758l3.795-25.058c12.137 8.824 26.232 14.336 42.165 14.336 17.89 0 26.684-8.162 26.684-20.028 0-14.487-10.722-22.889-34.545-22.889h-14.487l4.066-24.727h10.481c26.684 0 37.406-9.336 37.406-25.54 0-15.029-11.445-23.1-29.786-23.1-16.414 0-30.72 4.728-44.032 13.101l-4.277-25.961c12.83-7.65 30.69-12.649 49.483-12.649 35.027 0 59.091 17.92 59.091 47.676zM504.471 139.625l-3.825 25.208h-67.192l38.852 38.822c19.787 19.546 29.304 33.16 29.304 54.121 0 28.13-19.546 45.749-51.953 45.749-21.203 0-37.888-7.349-50.507-17.167l3.795-27.106c13.101 10.481 27.648 17.83 43.339 17.83 15.962 0 25.058-7.59 25.058-22.347 0-11.716-6.234-20.751-18.583-33.852l-57.645-58.82v-22.377l109.357-0.060zM614.942 201.397h-44.363l2.56-16.926h22.408v-24.546c-5.421-2.831-10.872-4.457-18.552-4.457-22.287 0-33.491 15.691-33.491 39.424 0 23.582 10.872 39.243 32.527 39.243 12.198 0 22.136-4.427 30.479-10.421l3.042 19.697c-8.824 5.331-19.516 8.855-33.611 8.855-33.672 0-54.031-23.251-54.031-57.525 0-34.123 19.245-57.193 54.302-57.193 14.758 0 28.401 4.488 38.761 11.204v52.646zM709.963 171.821c0 14.697-8.162 22.739-20.51 26.624 9.608 3.945 16.023 11.505 16.023 23.040 0 17.438-11.866 28.672-36.683 28.672h-32.196v-110.532h31.744c25.901 0 41.623 10.391 41.623 32.196zM879.646 588.137v-48.399h32.226v-532.269c0-35.689-28.853-64.542-64.512-64.542h-677.436c-35.629 0-64.512 28.853-64.512 64.542v467.727h32.256v112.941h-16.143c-8.855 0-16.113 7.258-16.113 16.113v32.256c0 8.855 7.258 16.143 16.113 16.143h16.143v48.369h-32.256v193.566c0 35.659 28.883 64.512 64.512 64.512h536.305c18.071 0 35.147-7.59 47.405-20.811l141.161-170.345c10.993-11.927 17.077-27.588 17.077-43.701v-136.102h-32.226zM202.18 104.267c0-17.769 14.517-32.226 32.286-32.226h532.269c17.739 0 32.256 14.456 32.256 32.226v645.15c0 17.739-14.517 32.256-32.256 32.256h-532.269c-17.739 0-32.286-14.517-32.286-32.256v-645.15zM815.104 7.65c0 8.824-7.078 15.932-15.962 15.932h-581c-8.855 0-15.962-7.108-15.962-15.932v-0.361c0-8.885 7.108-15.962 15.962-15.962h581c8.885 0 15.962 7.078 15.962 15.962v0.361z" />
<glyph unicode="&#xe920;" glyph-name="no-flash" d="M143.36 908.8l-66.56-66.56 256-256v-189.44h153.6v-460.8l184.32 312.32 209.92-209.92 66.56 66.56-803.84 803.84zM844.8 550.4h-204.8l204.8 409.6h-512v-112.64l435.2-435.2 76.8 138.24z" />
<glyph unicode="&#xe921;" glyph-name="preview" d="M513.95 690.907c130.414 0 240.786-59.441 310.443-109.324 82.505-59.099 124.952-116.248 135.948-138.045-11.020-21.821-53.443-78.97-135.948-138.045-69.632-49.908-180.029-109.349-310.443-109.349s-240.811 59.441-310.443 109.349c-82.505 59.075-124.952 116.248-135.973 138.045 11.020 21.797 53.467 78.946 135.948 138.045 69.656 49.883 180.029 109.324 310.467 109.324zM513.95 752.762c-281.795 0-510.245-247.394-510.245-309.224 0-61.854 228.45-309.224 510.245-309.224s510.22 247.369 510.22 309.224c0 61.83-228.425 309.224-510.22 309.224v0zM513.95 629.077c-102.473 0-185.539-83.066-185.539-185.539 0-102.449 83.090-185.539 185.539-185.539s185.539 83.090 185.539 185.539c-0.024 102.473-83.090 185.539-185.539 185.539zM463.994 443.538c-43.349 0-78.507 35.133-78.507 78.507 0 43.349 35.157 78.482 78.507 78.482s78.482-35.133 78.482-78.482c0-43.374-35.133-78.507-78.482-78.507z" />
<glyph unicode="&#xe922;" glyph-name="video-camera-1" d="M175.982 582.485h576.39v-543.549h-576.39c-47.811 0-84.163 40.155-84.163 87.991v371.712c0 48.152 36.328 83.846 84.163 83.846v0zM612.084 850.286c-75.874 0-131.974-59.928-131.974-131.998 0-71.729 56.101-131.657 131.974-131.657 72.070 0 131.998 59.928 131.998 131.657 0 72.070-59.928 131.998-131.998 131.998v0zM292.035 850.286c-75.898 0-131.998-59.928-131.998-131.998 0-71.729 56.101-131.657 131.998-131.657 72.046 0 131.974 59.928 131.974 131.657 0 72.070-59.928 131.998-131.974 131.998v0zM15.945 470.577h31.89c8.29 0 15.945-7.973 15.945-15.945v-263.973c0-7.973-7.656-15.945-15.945-15.945h-31.89c-7.656 0.024-15.945 7.997-15.945 15.97v263.948c0 7.997 8.29 15.945 15.945 15.945v0zM968.533 546.792v0l-184.271-120.198v-231.765l184.271-115.736h47.811v467.7h-47.811z" />
<glyph unicode="&#xe923;" glyph-name="video-camera-2" d="M476.306 438.248h200.216c3.803 0 7.948-3.852 7.948-7.997v-19.773c0-4.145-4.145-8.29-7.948-8.29h-200.216c-3.828 0-7.973 4.145-7.973 8.29v19.773c-0.024 4.145 4.12 7.997 7.973 7.997v0zM124.343 434.395h248.027c19.773 0 40.18-20.066 40.18-39.838v-120.198c0-20.066-20.407-39.863-40.18-39.863h-248.027c-20.407 0-40.155 19.797-40.155 39.863v120.198c-0.024 19.773 19.749 39.838 40.155 39.838v0zM544.524 825.905c-84.163 0-152.381-67.925-152.381-151.771s68.218-147.919 152.381-147.919c79.726 0 147.944 64.073 147.944 147.919s-68.218 151.771-147.944 151.771v0zM180.443 765.976c-64.39 0-120.515-55.784-120.515-119.881 0-67.901 56.125-119.881 120.515-119.881 67.584 0 119.881 51.956 119.881 119.881-0.024 64.073-52.297 119.881-119.881 119.881v0zM764.514 342.577v95.671c0 32.183-31.915 64.049-64.098 64.049h-636.026c-36.328 0.024-64.39-31.866-64.39-64.049v-319.756c0-31.915 28.062-59.953 64.39-59.953h636.026c32.183 0 64.098 28.038 64.098 59.953v95.939l251.855-155.916v443.806l-251.855-159.744z" />
<glyph unicode="&#xe924;" glyph-name="video-camera-play" d="M268.434 253.269l239.738 191.951-239.738 191.902v-383.854zM100.108 764.952h676.498v-160.037l183.637 111.909h56.125v-547.401h-56.125l-183.637 115.736v-159.72h-676.498c-56.101 0.024-100.108 43.983-100.108 99.767v435.81c0 55.808 44.008 103.936 100.108 103.936v0z" />
</font>
</defs>
</svg>
